<?xml version="1.0" encoding="utf-8"?>
<!-- Generator: Adobe Illustrator 16.0.0, SVG Export Plug-In . SVG Version: 6.00 Build 0)  -->
<!DOCTYPE svg PUBLIC "-//W3C//DTD SVG 1.1//EN" "http://www.w3.org/Graphics/SVG/1.1/DTD/svg11.dtd">
<svg version="1.1" id="Capa_1" xmlns="http://www.w3.org/2000/svg" xmlns:xlink="http://www.w3.org/1999/xlink" x="0px" y="0px"
	 width="962.58px" height="558.298px" viewBox="0 0 962.58 558.298" enable-background="new 0 0 962.58 558.298"
	 xml:space="preserve">
<path fill="#1B1464" d="M251.683,483.951c0,0-58.827-71.763-9.949-149.458c43.368-68.936,93.93-64.223,131.028-36.247
	c15.798,11.913,61.353,1.47,100.125-68.677c52.873-95.657,236.152-37.642,202.734,109.53
	c-16.171,71.223,49.218,73.809,15.899,145.003L251.683,483.951z"/>
<g>
	<path fill-rule="evenodd" clip-rule="evenodd" fill="#F1F0F1" d="M582.67,344.896c-0.049,25.481-0.098,50.964-0.146,76.446
		c-6.368,12.746-17.512,14.382-30.352,14.344c-89.545-0.273-179.094-0.273-268.641,0c-12.841,0.038-23.984-1.6-30.345-14.354
		c-0.119-2.565-0.344-5.131-0.344-7.698c-0.019-71.998-0.017-143.994-0.006-215.993c0-1.496,0.135-2.99,0.207-4.485
		c83.422,0,166.846-0.013,250.268,0.063c2.375,0.002,5.099-1.199,7.174,1.116c-21.911,4.971-39.108,16.927-52.089,35.135
		c-9.008-0.069-18.021,0.033-27.02-0.287c-4.034-0.144-5.146,1.354-5.068,5.177c0.199,9.866-0.035,19.738,0.102,29.605
		c0.073,5.328-2.275,12.238,0.944,15.575c3.528,3.656,10.576,0.844,16.068,1.286c0.788,5.291,1.185,10.677,2.485,15.836
		c1.121,4.444-0.479,4.894-4.3,4.863c-19.94-0.158-39.884,0.053-59.824-0.177c-4.263-0.048-5.269,1.209-5.332,5.343
		c-0.064,4.374,1.412,5.256,5.46,5.217c19.51-0.196,39.047,0.462,58.527-0.341c8.645-0.357,13.099,2.527,15,10.476
		c-24.264,0.015-48.527,0.085-72.791-0.011c-3.977-0.016-6.406,0.415-6.346,5.429c0.058,4.796,2.52,5.009,6.122,4.997
		c26.84-0.086,53.68-0.071,80.519-0.086c3.052,3.057,6.102,6.114,9.152,9.173c-2.201,2.025-4.912,1.118-7.379,1.125
		c-27.698,0.072-55.396,0.104-83.093-0.015c-3.878-0.017-5.296,1.229-5.276,5.168c0.018,3.832,1.205,5.282,5.184,5.26
		c35.421-0.204,70.842-0.249,106.265-0.343c9.362,4.427,18.837,8.523,29.296,9.611c-2.37,1.438-5.006,0.97-7.549,0.974
		c-24.252,0.028-48.503,0.018-72.754,0.018c-18.242,0-36.486,0.134-54.726-0.087c-4.683-0.057-5.761,1.743-5.716,6.04
		c0.056,5.335,3.616,4.335,6.665,4.336c49.147,0.029,98.294,0.02,147.44,0.02c11.121,0.002,11.121,0,11.11-11.362
		C556.883,360.312,570.229,353.673,582.67,344.896z M288.907,347.498c0,13.737,0.115,27.474-0.071,41.206
		c-0.056,4.054,1.033,5.693,5.393,5.653c20.603-0.187,41.209-0.164,61.811-0.015c3.964,0.03,5.164-1.352,5.146-5.22
		c-0.121-27.473-0.146-54.945,0.019-82.415c0.026-4.429-1.73-5.347-5.713-5.317c-20.389,0.149-40.779,0.166-61.167-0.009
		c-4.242-0.037-5.556,1.388-5.492,5.555C289.035,320.453,288.907,333.976,288.907,347.498z M314.501,229.263
		c-6.868,0-13.736,0.096-20.6-0.042c-3.314-0.066-5.214,0.66-5.176,4.563c0.141,14.162,0.104,28.326,0.019,42.488
		c-0.021,3.22,1.085,4.633,4.473,4.608c14.162-0.105,28.326-0.121,42.487,0.019c3.653,0.036,4.847-1.346,4.813-4.907
		c-0.132-13.947-0.175-27.898,0.021-41.845c0.059-4.186-1.801-5.034-5.438-4.938C328.237,229.391,321.367,229.262,314.501,229.263z
		 M357.402,255.04c0,7.086,0.102,14.174-0.047,21.256c-0.064,3.007,0.302,4.705,4.054,4.653c14.598-0.198,29.2-0.149,43.8-0.021
		c3.014,0.025,4.102-0.807,4.071-3.953c-0.141-14.601-0.14-29.202-0.001-43.8c0.03-3.116-0.982-4.009-4.038-3.981
		c-14.599,0.136-29.202,0.179-43.799-0.021c-3.712-0.05-4.16,1.56-4.091,4.611C357.514,240.867,357.402,247.956,357.402,255.04z
		 M439.147,394.277c18.685,0,37.367-0.07,56.052,0.059c3.989,0.027,6.406-0.449,6.345-5.443c-0.062-4.819-2.583-4.965-6.163-4.96
		c-37.581,0.062-75.163,0.075-112.745-0.018c-3.991-0.01-6.39,0.443-6.334,5.442c0.053,4.841,2.586,4.971,6.151,4.955
		C401.352,394.237,420.25,394.277,439.147,394.277z"/>
	<path fill-rule="evenodd" clip-rule="evenodd" fill="#0A3656" d="M253.038,187.964c-0.069-5.793-0.195-11.587-0.198-17.38
		c-0.01-15.892,7.857-23.835,23.604-23.839c54.761-0.01,109.521-0.004,164.28-0.004c39.514,0,79.028-0.007,118.542,0.004
		c15.745,0.005,23.613,7.947,23.604,23.839c-0.004,5.793-0.129,11.587-0.199,17.38C472.795,187.964,362.916,187.964,253.038,187.964
		z"/>
	<path fill-rule="evenodd" clip-rule="evenodd" fill="#0D3857" d="M455.439,322.041c-1.901-7.948-6.355-10.833-15-10.476
		c-19.48,0.803-39.018,0.145-58.527,0.341c-4.048,0.039-5.524-0.843-5.46-5.217c0.063-4.134,1.069-5.391,5.332-5.343
		c19.94,0.229,39.884,0.019,59.824,0.177c3.821,0.03,5.421-0.419,4.3-4.863c-1.301-5.159-1.697-10.545-2.485-15.836
		c-0.452-18.704,5.03-35.682,14.974-51.356c12.98-18.208,30.178-30.164,52.089-35.135c11.691-2.601,23.421-3.3,35.216-0.708
		c13.658,2.895,25.576,9.535,37.021,17.195c18.891,16.257,29.898,36.561,31.745,61.614c1.046,14.188-2.049,27.622-7.188,40.706
		c-2.938,5.017-5.877,10.032-8.815,15.052c-4.748,6.056-10.248,11.402-15.795,16.703c-12.44,8.777-25.787,15.416-41.104,17.391
		c-8.152,1.062-16.312,1.185-24.474,0.063c-10.459-1.088-19.934-5.185-29.298-9.611c-5.233-3.731-10.466-7.464-15.698-11.195
		c-3.051-3.059-6.101-6.116-9.151-9.173C460.442,328.927,457.939,325.482,455.439,322.041z M473.708,238.762
		c-1.257,0.134-1.63,0.989-1.703,2.088c-10.159,14.647-13.216,30.741-10.4,48.267c4.863,30.259,28.261,52.62,61.129,56.826
		c25.424,3.253,56.789-11.155,67.873-39.459c1.759-1.132,2.325-3.036,2.967-4.822c9.399-26.159,3.466-53.503-16.166-72.942
		c-25.899-25.646-65.76-26.537-93.335-3.026c-3.457,2.949-7.761,5.625-8.397,10.91l-0.199,0.203c-1.091,0.134-1.763,0.65-1.681,1.85
		L473.708,238.762z"/>
	<path fill-rule="evenodd" clip-rule="evenodd" fill="#436076" d="M663.017,336.008c1.378,0.538,2.853,0.907,4.118,1.637
		c29.83,17.18,59.642,34.394,89.438,51.632c1.082,0.625,1.99,1.546,2.979,2.33c-2.989,4.753-5.976,9.505-8.964,14.255
		c-10.395-6.022-20.797-12.032-31.182-18.074c-21.32-12.402-42.632-24.823-63.946-37.235
		C657.979,345.704,660.498,340.857,663.017,336.008z"/>
	<path fill-rule="evenodd" clip-rule="evenodd" fill="#0D3755" d="M655.46,350.552c21.314,12.412,42.626,24.833,63.946,37.235
		c10.385,6.042,20.787,12.052,31.182,18.075c-2.619,4.825-5.24,9.651-7.861,14.478c-5.064-2.734-10.195-5.352-15.182-8.222
		c-25.037-14.41-50.044-28.876-75.037-43.361c-2.009-1.164-3.845-2.621-5.76-3.944C649.651,360.059,652.555,355.305,655.46,350.552z
		"/>
	<path fill-rule="evenodd" clip-rule="evenodd" fill="#D6DADC" d="M253.187,421.331c6.36,12.755,17.504,14.393,30.345,14.354
		c89.547-0.273,179.096-0.273,268.641,0c12.84,0.038,23.983-1.598,30.352-14.344c-0.854,10.999-8.642,18.792-19.381,19.326
		c-2.355,0.117-4.723,0.032-7.085,0.032c-93.427,0.001-186.854,0.006-280.28-0.007C262.286,440.691,254.135,433.66,253.187,421.331z
		"/>
	<path fill-rule="evenodd" clip-rule="evenodd" fill="#416079" d="M545.701,193.625c-11.795-2.592-23.524-1.893-35.216,0.708
		c-2.075-2.315-4.799-1.114-7.174-1.116c-83.422-0.075-166.846-0.063-250.268-0.063c-0.002-1.73-0.004-3.461-0.006-5.19
		c109.878,0,219.757,0,329.634,0c-0.001,1.729-0.001,3.459-0.001,5.187C570.347,193.309,558.024,193.467,545.701,193.625z"/>
	<path fill-rule="evenodd" clip-rule="evenodd" fill="#EA5B49" d="M598.465,328.192c2.938-5.02,5.877-10.035,8.815-15.052
		c9.845,5.587,19.69,11.171,29.536,16.754c-1.207,2.614-2.416,5.227-3.623,7.84c-1.613,2.2-3.227,4.403-4.84,6.604
		C617.75,340.144,608.863,332.768,598.465,328.192z"/>
	<path fill-rule="evenodd" clip-rule="evenodd" fill="#EA5B49" d="M742.727,420.34c2.621-4.826,5.242-9.652,7.861-14.478
		c2.988-4.751,5.975-9.503,8.964-14.256c8.729,4.836,11.078,13.63,6.061,22.685C760.945,422.712,751.635,425.174,742.727,420.34z"/>
	<path fill-rule="evenodd" clip-rule="evenodd" fill="#EA5B49" d="M655.46,350.552c-2.905,4.753-5.809,9.507-8.712,14.261
		c-3.011-0.498-5.331-2.19-7.416-4.288c2.598-5.056,5.193-10.111,7.79-15.166c2.824-4.45,5.646-8.899,8.47-13.349
		c2.937,0.476,5.468,1.703,7.423,4.002C660.498,340.857,657.979,345.704,655.46,350.552z"/>
	<path fill-rule="evenodd" clip-rule="evenodd" fill="#436076" d="M655.592,332.01c-2.823,4.449-5.646,8.898-8.47,13.346
		c-5.123-1.662-9.381-4.907-13.929-7.621c1.207-2.613,2.416-5.226,3.623-7.84C641.944,322.216,645.818,322.652,655.592,332.01z"/>
	<path fill-rule="evenodd" clip-rule="evenodd" fill="#0D3755" d="M633.193,337.734c4.548,2.714,8.806,5.959,13.929,7.621
		c-2.597,5.058-5.192,10.113-7.79,15.169c-4.747-1.259-8.41-4.591-12.739-6.647c-1.939-0.922-2.168-2.164-1.081-3.979
		c1.068-1.782,1.905-3.705,2.843-5.563C629.967,342.138,631.58,339.935,633.193,337.734z"/>
	<path fill-rule="evenodd" clip-rule="evenodd" fill="#F1EFEF" d="M545.701,193.625c12.323-0.158,24.646-0.316,36.97-0.475
		c0.018,5.892,0.034,11.78,0.052,17.67C571.277,203.16,559.359,196.52,545.701,193.625z"/>
	<path fill-rule="evenodd" clip-rule="evenodd" fill="#79BBBE" d="M288.907,347.498c0-13.522,0.128-27.045-0.076-40.562
		c-0.063-4.167,1.25-5.592,5.492-5.555c20.388,0.175,40.778,0.158,61.167,0.009c3.982-0.029,5.739,0.889,5.713,5.317
		c-0.165,27.47-0.14,54.942-0.019,82.415c0.019,3.868-1.182,5.25-5.146,5.22c-20.602-0.149-41.208-0.172-61.811,0.015
		c-4.359,0.04-5.448-1.6-5.393-5.653C289.022,374.972,288.907,361.235,288.907,347.498z"/>
	<path fill-rule="evenodd" clip-rule="evenodd" fill="#79BBBE" d="M314.501,229.262c6.866,0,13.736,0.129,20.599-0.054
		c3.637-0.096,5.496,0.753,5.438,4.938c-0.195,13.946-0.152,27.897-0.021,41.845c0.034,3.562-1.159,4.943-4.813,4.907
		c-14.161-0.14-28.325-0.124-42.487-0.019c-3.388,0.024-4.493-1.389-4.473-4.608c0.086-14.162,0.122-28.326-0.019-42.488
		c-0.038-3.902,1.861-4.629,5.176-4.563C300.765,229.358,307.633,229.263,314.501,229.262z"/>
	<path fill-rule="evenodd" clip-rule="evenodd" fill="#0B3756" d="M357.402,255.04c0-7.084,0.111-14.173-0.051-21.256
		c-0.069-3.052,0.379-4.661,4.091-4.611c14.597,0.199,29.2,0.156,43.799,0.021c3.056-0.027,4.068,0.865,4.038,3.981
		c-0.139,14.598-0.14,29.199,0.001,43.8c0.03,3.146-1.058,3.979-4.071,3.953c-14.6-0.128-29.202-0.177-43.8,0.021
		c-3.752,0.052-4.118-1.646-4.054-4.653C357.504,269.214,357.402,262.126,357.402,255.04z"/>
	<path fill-rule="evenodd" clip-rule="evenodd" fill="#79BBBE" d="M517.092,362.35c8.162,1.121,16.321,0.998,24.474-0.063
		c0.009,11.363,0.009,11.365-11.112,11.363c-49.146,0-98.293,0.01-147.44-0.02c-3.049-0.001-6.609,0.999-6.665-4.336
		c-0.045-4.297,1.033-6.097,5.716-6.04c18.239,0.221,36.483,0.087,54.726,0.087c24.251,0,48.502,0.011,72.754-0.018
		C512.086,363.319,514.722,363.788,517.092,362.35z"/>
	<path fill-rule="evenodd" clip-rule="evenodd" fill="#79BBBE" d="M439.147,394.277c-18.897,0-37.796-0.04-56.694,0.035
		c-3.565,0.016-6.099-0.114-6.151-4.955c-0.056-4.999,2.343-5.452,6.334-5.442c37.582,0.093,75.164,0.079,112.745,0.018
		c3.58-0.005,6.102,0.141,6.163,4.96c0.062,4.994-2.355,5.471-6.345,5.443C476.515,394.207,457.832,394.277,439.147,394.277z"/>
	<path fill-rule="evenodd" clip-rule="evenodd" fill="#EB594A" d="M458.396,229.468c-9.943,15.675-15.426,32.652-14.974,51.356
		c-5.492-0.442-12.54,2.37-16.068-1.286c-3.22-3.337-0.871-10.247-0.944-15.575c-0.137-9.867,0.098-19.739-0.102-29.605
		c-0.077-3.822,1.034-5.32,5.068-5.177C440.376,229.501,449.389,229.398,458.396,229.468z"/>
	<path fill-rule="evenodd" clip-rule="evenodd" fill="#79BBBE" d="M472.096,341.543c5.232,3.731,10.465,7.464,15.698,11.195
		c-35.421,0.094-70.842,0.139-106.263,0.343c-3.979,0.022-5.166-1.428-5.184-5.26c-0.02-3.938,1.398-5.185,5.276-5.168
		c27.696,0.118,55.395,0.087,83.093,0.015C467.184,342.661,469.895,343.568,472.096,341.543z"/>
	<path fill-rule="evenodd" clip-rule="evenodd" fill="#79BBBE" d="M455.439,322.041c2.5,3.441,5.003,6.886,7.505,10.329
		c-26.84,0.015-53.68,0-80.52,0.086c-3.603,0.012-6.064-0.201-6.122-4.997c-0.061-5.014,2.369-5.444,6.346-5.429
		C406.912,322.126,431.176,322.056,455.439,322.041z"/>
	<path fill-rule="evenodd" clip-rule="evenodd" fill="#AED3D1" d="M590.606,306.483c-11.084,28.304-42.449,42.712-67.873,39.459
		c-32.868-4.206-56.266-26.567-61.129-56.826c-2.815-17.525,0.241-33.619,10.4-48.267c1.014-0.333,1.538-1.063,1.703-2.088
		c0,0,0.087-0.106,0.086-0.106c0.961-0.251,1.644-0.758,1.682-1.85l0.199-0.203c1.028-0.712,2.154-1.318,3.074-2.151
		c38.058-34.49,98.467-16.821,112.107,32.648C594.518,280.374,593.158,293.374,590.606,306.483z M539.053,254.394
		c0.002-9.782-6.727-17.122-15.872-17.315c-9.584-0.201-17.725,7.884-17.608,17.488c0.104,8.651,8.453,17.216,16.872,17.071
		C530.325,271.507,540.476,265.244,539.053,254.394z M521.064,227.018c-0.313-3.104-2.287-4.945-5.387-4.829
		c-3.083,0.114-5.122,2.02-4.975,5.36c0.153,3.485,2.096,5.649,5.641,5.366C519.545,232.657,520.977,230.344,521.064,227.018z"/>
	<path fill-rule="evenodd" clip-rule="evenodd" fill="#456279" d="M590.606,306.483c2.552-13.109,3.911-26.109,0.25-39.384
		c-13.641-49.47-74.05-67.139-112.107-32.648c-0.92,0.833-2.046,1.439-3.074,2.151c0.637-5.285,4.94-7.961,8.397-10.91
		c27.575-23.511,67.436-22.62,93.335,3.026c19.632,19.439,25.565,46.783,16.166,72.942
		C592.932,303.447,592.365,305.352,590.606,306.483z"/>
	<path fill-rule="evenodd" clip-rule="evenodd" fill="#456279" d="M475.476,236.806c-0.038,1.092-0.721,1.599-1.682,1.85
		C473.713,237.456,474.385,236.939,475.476,236.806z"/>
	<path fill-rule="evenodd" clip-rule="evenodd" fill="#456279" d="M473.708,238.762c-0.165,1.024-0.689,1.755-1.703,2.088
		C472.078,239.751,472.451,238.896,473.708,238.762z"/>
	<path fill-rule="evenodd" clip-rule="evenodd" fill="#F1EFEF" d="M539.053,254.394c1.423,10.851-8.728,17.113-16.608,17.244
		c-8.419,0.145-16.769-8.42-16.872-17.071c-0.116-9.604,8.024-17.689,17.608-17.488
		C532.326,237.271,539.055,244.611,539.053,254.394z"/>
	<path fill-rule="evenodd" clip-rule="evenodd" fill="#F1EFEF" d="M521.064,227.018c-0.088,3.326-1.52,5.64-4.721,5.897
		c-3.545,0.283-5.487-1.881-5.641-5.366c-0.147-3.341,1.892-5.246,4.975-5.36C518.777,222.072,520.752,223.913,521.064,227.018z"/>
</g>
</svg>
