<?xml version="1.0" encoding="utf-8"?>
<!-- Generator: Adobe Illustrator 16.0.0, SVG Export Plug-In . SVG Version: 6.00 Build 0)  -->
<!DOCTYPE svg PUBLIC "-//W3C//DTD SVG 1.1//EN" "http://www.w3.org/Graphics/SVG/1.1/DTD/svg11.dtd">
<svg version="1.1" id="Capa_1" xmlns="http://www.w3.org/2000/svg" xmlns:xlink="http://www.w3.org/1999/xlink" x="0px" y="0px"
	 width="962.58px" height="558.298px" viewBox="0 0 962.58 558.298" enable-background="new 0 0 962.58 558.298"
	 xml:space="preserve">
<rect x="-0.156" y="0.306" fill="#FFFFFF" width="961" height="558"/>
<path opacity="0.7" fill="#1B1464" d="M371.363,532.158c-5.97,0-11.929-0.644-17.852-1.939c-1.204-0.309-2.151-0.964-2.856-1.949
	c-0.693-0.966-1.044-2.023-1.044-3.153v-14.757c-6.718-2.478-12.876-6.015-18.335-10.516l-12.637,7.521
	c-1.236,0.619-2.404,0.76-3.545,0.46c-1.087-0.278-2.042-0.823-2.832-1.619c-8.212-8.846-14.225-19.12-17.902-30.576
	c-0.301-1.194-0.229-2.313,0.175-3.402c0.438-1.177,1.246-2.062,2.399-2.633l12.584-7.491c-1.107-6.99-1.107-14.065-0.003-21.061
	l-12.668-7.54c-1.062-0.521-1.869-1.405-2.313-2.579c-0.403-1.098-0.473-2.213-0.199-3.322c3.702-11.538,9.715-21.814,17.892-30.631
	c0.828-0.831,1.783-1.371,2.867-1.653c1.137-0.304,2.3-0.159,3.455,0.413l12.727,7.573c5.456-4.503,11.613-8.035,18.335-10.518
	v-14.753c0-1.132,0.351-2.191,1.045-3.158c0.707-0.986,1.651-1.64,2.81-1.939c11.903-2.604,23.92-2.601,35.772-0.011
	c1.206,0.311,2.151,0.964,2.859,1.95c0.687,0.963,1.04,2.023,1.04,3.158v14.753c6.721,2.479,12.884,6.015,18.334,10.515l12.637-7.52
	c1.246-0.615,2.407-0.762,3.552-0.464c1.083,0.282,2.035,0.822,2.825,1.617c8.213,8.85,14.229,19.129,17.908,30.58
	c0.298,1.196,0.229,2.313-0.178,3.406c-0.438,1.174-1.246,2.059-2.402,2.632l-12.578,7.49c1.104,6.995,1.104,14.07,0,21.061
	l12.632,7.518c1.131,0.571,1.922,1.448,2.349,2.607c0.406,1.087,0.476,2.203,0.202,3.313c-3.703,11.548-9.72,21.822-17.896,30.633
	c-0.823,0.828-1.774,1.373-2.861,1.651c-1.146,0.304-2.315,0.159-3.462-0.414l-12.724-7.566
	c-5.459,4.504-11.617,8.038-18.337,10.516v14.757c0,1.13-0.354,2.192-1.042,3.154c-0.705,0.984-1.651,1.64-2.808,1.936
	C383.33,531.51,377.344,532.158,371.363,532.158 M331.538,496.664l0.708,0.604c5.62,4.779,12.044,8.467,19.097,10.956l0.867,0.306
	v16.587c0,0.583,0.182,1.12,0.557,1.641c0.348,0.486,0.789,0.796,1.348,0.939c11.436,2.495,23.083,2.496,34.571-0.013
	c0.51-0.131,0.953-0.44,1.299-0.924c0.375-0.52,0.556-1.061,0.556-1.644v-16.587l0.864-0.306
	c7.057-2.489,13.479-6.177,19.098-10.956l0.709-0.604l14.229,8.47c0.495,0.24,1.036,0.316,1.568,0.178
	c0.643-0.166,1.179-0.472,1.64-0.938c7.888-8.497,13.71-18.445,17.274-29.538c0.122-0.522,0.086-1.093-0.144-1.705
	c-0.199-0.547-0.555-0.937-1.118-1.213l-0.087-0.046l-14.196-8.449l0.151-0.879c1.251-7.279,1.251-14.663,0-21.943l-0.151-0.881
	l14.196-8.446c0.65-0.327,1.003-0.706,1.205-1.258c0.229-0.612,0.266-1.185,0.119-1.799c-3.54-11-9.362-20.947-17.28-29.479
	c-0.431-0.436-0.971-0.743-1.609-0.909c-0.529-0.133-1.067-0.063-1.658,0.231l-14.14,8.417l-0.709-0.602
	c-5.612-4.776-12.035-8.462-19.098-10.954l-0.864-0.308v-16.582c0-0.586-0.181-1.122-0.555-1.643
	c-0.351-0.49-0.79-0.795-1.349-0.942c-11.434-2.493-23.084-2.499-34.569,0.009c-0.512,0.139-0.952,0.443-1.298,0.929
	c-0.378,0.525-0.56,1.062-0.56,1.647v16.582l-0.867,0.308c-7.057,2.492-13.481,6.178-19.094,10.954l-0.711,0.602l-14.226-8.471
	c-0.5-0.241-1.04-0.315-1.567-0.178c-0.64,0.166-1.179,0.478-1.647,0.942c-7.886,8.499-13.705,18.448-17.267,29.536
	c-0.126,0.523-0.089,1.096,0.142,1.708c0.202,0.552,0.557,0.931,1.112,1.206l14.288,8.498l-0.151,0.881
	c-1.247,7.28-1.247,14.664,0,21.943l0.151,0.879l-14.195,8.449c-0.648,0.322-1.003,0.712-1.21,1.257
	c-0.226,0.614-0.263,1.185-0.114,1.795c3.539,11.002,9.358,20.95,17.277,29.483c0.433,0.432,0.972,0.738,1.614,0.907
	c0.53,0.135,1.067,0.061,1.658-0.226L331.538,496.664z M371.374,478.449c-7.368,0-13.758-2.657-18.982-7.897
	c-5.238-5.246-7.895-11.633-7.895-18.98c0-7.35,2.656-13.736,7.895-18.98c5.229-5.241,11.617-7.899,18.982-7.899
	c7.369,0,13.756,2.658,18.986,7.895v0.005c5.24,5.244,7.895,11.631,7.895,18.98c0,7.348-2.654,13.734-7.895,18.98
	C385.133,475.792,378.745,478.449,371.374,478.449 M371.374,427.289c-6.648,0-12.42,2.401-17.145,7.135
	c-4.8,4.81-7.136,10.419-7.136,17.147c0,6.729,2.336,12.336,7.136,17.149c4.725,4.735,10.493,7.132,17.145,7.132
	c6.655,0,12.426-2.396,17.149-7.132c4.801-4.813,7.135-10.42,7.135-17.149c0-6.729-2.334-12.338-7.135-17.148
	C383.8,429.69,378.028,427.289,371.374,427.289"/>
<path opacity="0.3" fill="#1B1464" d="M426.035,241.996c-3.608,0-7.212-0.385-10.792-1.161c-0.729-0.184-1.301-0.577-1.727-1.167
	c-0.419-0.578-0.632-1.211-0.632-1.888v-8.834c-4.061-1.484-7.785-3.602-11.085-6.296l-7.64,4.502
	c-0.748,0.371-1.454,0.455-2.143,0.275c-0.658-0.166-1.234-0.493-1.713-0.97c-4.966-5.296-8.6-11.447-10.824-18.306
	c-0.182-0.715-0.138-1.384,0.105-2.037c0.266-0.704,0.754-1.233,1.451-1.576l7.608-4.485c-0.669-4.185-0.669-8.421-0.001-12.609
	l-7.66-4.514c-0.642-0.313-1.13-0.842-1.398-1.544c-0.243-0.658-0.285-1.325-0.119-1.989c2.238-6.908,5.872-13.061,10.816-18.339
	c0.501-0.497,1.078-0.82,1.734-0.989c0.686-0.182,1.39-0.096,2.087,0.247l7.695,4.534c3.299-2.695,7.021-4.81,11.085-6.296v-8.833
	c0-0.677,0.213-1.312,0.633-1.891c0.426-0.591,0.997-0.981,1.697-1.161c7.196-1.559,14.462-1.558,21.629-0.007
	c0.729,0.187,1.301,0.577,1.727,1.168c0.416,0.577,0.631,1.211,0.631,1.891v8.833c4.063,1.484,7.788,3.601,11.083,6.294l7.641-4.502
	c0.753-0.368,1.454-0.456,2.147-0.277c0.654,0.169,1.23,0.492,1.707,0.968c4.967,5.299,8.604,11.453,10.828,18.309
	c0.18,0.717,0.139,1.384-0.108,2.04c-0.264,0.703-0.753,1.232-1.451,1.576l-7.605,4.484c0.668,4.188,0.668,8.425,0,12.609
	l7.637,4.501c0.685,0.342,1.161,0.867,1.42,1.562c0.247,0.65,0.288,1.318,0.122,1.983c-2.238,6.913-5.875,13.064-10.818,18.339
	c-0.498,0.496-1.074,0.823-1.73,0.989c-0.693,0.182-1.4,0.096-2.094-0.248l-7.691-4.529c-3.301,2.697-7.024,4.812-11.086,6.296
	v8.834c0,0.677-0.215,1.313-0.631,1.889c-0.426,0.589-0.998,0.982-1.697,1.159C433.27,241.608,429.651,241.996,426.035,241.996
	 M401.959,220.746l0.427,0.361c3.397,2.861,7.282,5.069,11.547,6.56l0.522,0.183v9.931c0,0.349,0.11,0.671,0.338,0.982
	c0.21,0.291,0.478,0.477,0.813,0.563c6.915,1.494,13.957,1.495,20.901-0.008c0.31-0.078,0.577-0.264,0.786-0.553
	c0.227-0.311,0.336-0.635,0.336-0.984v-9.931l0.522-0.183c4.267-1.491,8.149-3.699,11.547-6.56l0.429-0.361l8.603,5.071
	c0.3,0.144,0.626,0.19,0.947,0.106c0.389-0.099,0.713-0.282,0.992-0.562c4.768-5.087,8.289-11.043,10.443-17.685
	c0.074-0.313,0.053-0.654-0.086-1.021c-0.121-0.327-0.336-0.561-0.677-0.726l-0.053-0.027l-8.582-5.059l0.091-0.526
	c0.757-4.358,0.757-8.779,0-13.138l-0.091-0.528l8.582-5.057c0.394-0.196,0.606-0.423,0.729-0.753
	c0.139-0.367,0.16-0.71,0.071-1.077c-2.14-6.586-5.661-12.542-10.446-17.649c-0.262-0.261-0.588-0.444-0.975-0.544
	c-0.32-0.08-0.645-0.038-1.003,0.139l-8.547,5.04l-0.429-0.361c-3.395-2.859-7.277-5.066-11.547-6.558l-0.522-0.184v-9.928
	c0-0.351-0.109-0.671-0.335-0.983c-0.213-0.294-0.478-0.476-0.815-0.564c-6.913-1.493-13.956-1.497-20.899,0.005
	c-0.31,0.083-0.577,0.265-0.785,0.556c-0.229,0.314-0.34,0.635-0.34,0.985v9.928l-0.522,0.184
	c-4.268,1.492-8.152,3.699-11.545,6.558l-0.429,0.361l-8.602-5.072c-0.302-0.145-0.629-0.189-0.948-0.106
	c-0.387,0.1-0.712,0.286-0.996,0.564c-4.768,5.089-8.285,11.045-10.438,17.684c-0.076,0.313-0.054,0.656,0.086,1.023
	c0.122,0.33,0.336,0.557,0.673,0.722l8.638,5.088l-0.091,0.528c-0.754,4.358-0.754,8.779,0,13.138l0.091,0.526l-8.582,5.059
	c-0.393,0.193-0.606,0.426-0.731,0.753c-0.137,0.367-0.159,0.708-0.068,1.075c2.139,6.587,5.656,12.543,10.444,17.652
	c0.263,0.258,0.588,0.442,0.976,0.543c0.322,0.081,0.646,0.037,1.003-0.135L401.959,220.746z M426.043,209.84
	c-4.455,0-8.318-1.591-11.478-4.729c-3.167-3.141-4.772-6.965-4.772-11.363c0-4.4,1.605-8.225,4.772-11.364
	c3.162-3.138,7.024-4.73,11.478-4.73c4.455,0,8.316,1.592,11.479,4.728v0.002c3.167,3.14,4.771,6.964,4.771,11.364
	c0,4.398-1.604,8.223-4.771,11.363C434.361,208.249,430.498,209.84,426.043,209.84 M426.043,179.209
	c-4.021,0-7.509,1.438-10.366,4.272c-2.901,2.879-4.315,6.238-4.315,10.267s1.414,7.385,4.315,10.267
	c2.857,2.835,6.344,4.271,10.366,4.271c4.023,0,7.511-1.435,10.369-4.271c2.901-2.882,4.313-6.238,4.313-10.267
	s-1.411-7.388-4.313-10.268C433.554,180.647,430.066,179.209,426.043,179.209"/>
<path fill="#1B1464" d="M52.929,306.199c-1.846,0-3.689-0.199-5.519-0.6c-0.371-0.096-0.665-0.299-0.882-0.602
	c-0.214-0.298-0.322-0.626-0.322-0.976v-4.561c-2.076-0.766-3.979-1.858-5.665-3.25l-3.907,2.324
	c-0.382,0.192-0.743,0.234-1.096,0.145c-0.335-0.088-0.631-0.256-0.875-0.502c-2.537-2.732-4.396-5.908-5.533-9.448
	c-0.09-0.368-0.069-0.714,0.056-1.053c0.136-0.362,0.384-0.636,0.742-0.813l3.888-2.313c-0.342-2.163-0.342-4.35,0-6.51
	l-3.914-2.332c-0.33-0.159-0.58-0.432-0.716-0.796c-0.125-0.337-0.146-0.683-0.063-1.026c1.145-3.564,3.004-6.74,5.53-9.467
	c0.257-0.256,0.551-0.422,0.886-0.51c0.353-0.094,0.711-0.05,1.068,0.127l3.935,2.342c1.684-1.393,3.587-2.482,5.665-3.25v-4.561
	c0-0.35,0.108-0.678,0.322-0.977c0.217-0.304,0.511-0.506,0.868-0.596c3.679-0.808,7.391-0.805,11.055-0.006
	c0.374,0.096,0.665,0.298,0.883,0.602c0.214,0.299,0.323,0.627,0.323,0.977v4.561c2.078,0.766,3.979,1.857,5.664,3.25l3.906-2.326
	c0.385-0.19,0.744-0.234,1.098-0.143c0.334,0.088,0.627,0.254,0.875,0.499c2.537,2.735,4.396,5.91,5.531,9.451
	c0.093,0.37,0.072,0.716-0.054,1.053c-0.134,0.362-0.386,0.636-0.743,0.813l-3.888,2.315c0.342,2.16,0.342,4.347,0,6.51l3.902,2.32
	c0.351,0.178,0.595,0.448,0.729,0.806c0.126,0.337,0.146,0.683,0.062,1.024c-1.144,3.568-3.002,6.744-5.529,9.467
	c-0.255,0.256-0.551,0.424-0.885,0.512c-0.354,0.092-0.714,0.048-1.069-0.129l-3.933-2.34c-1.687,1.393-3.592,2.484-5.666,3.25
	v4.561c0,0.35-0.109,0.68-0.323,0.976c-0.216,0.303-0.509,0.506-0.867,0.6C56.625,305.998,54.776,306.199,52.929,306.199
	 M40.621,295.231l0.219,0.186c1.736,1.477,3.721,2.616,5.9,3.388l0.267,0.093v5.125c0,0.182,0.059,0.347,0.174,0.508
	c0.108,0.15,0.244,0.246,0.418,0.29c3.532,0.771,7.133,0.771,10.682-0.002c0.157-0.042,0.296-0.138,0.401-0.288
	c0.116-0.161,0.173-0.326,0.173-0.508v-5.125l0.268-0.093c2.182-0.771,4.163-1.911,5.9-3.388l0.22-0.186l4.397,2.617
	c0.152,0.074,0.319,0.098,0.483,0.053c0.2-0.049,0.365-0.145,0.507-0.288c2.438-2.626,4.236-5.699,5.339-9.129
	c0.039-0.16,0.026-0.337-0.045-0.524c-0.062-0.172-0.173-0.291-0.345-0.377l-0.027-0.015l-4.387-2.61l0.047-0.272
	c0.385-2.249,0.385-4.53,0-6.78l-0.047-0.271l4.387-2.611c0.199-0.1,0.311-0.219,0.372-0.388c0.071-0.19,0.084-0.368,0.037-0.557
	c-1.095-3.397-2.894-6.474-5.34-9.111c-0.133-0.134-0.3-0.226-0.498-0.282c-0.163-0.038-0.33-0.016-0.512,0.074l-4.369,2.602
	l-0.22-0.187c-1.734-1.476-3.719-2.616-5.9-3.384l-0.268-0.096v-5.125c0-0.182-0.057-0.348-0.173-0.506
	c-0.108-0.154-0.244-0.248-0.415-0.293c-3.535-0.771-7.133-0.771-10.686,0.006c-0.156,0.039-0.292,0.133-0.4,0.284
	c-0.115,0.163-0.174,0.327-0.174,0.509v5.125l-0.267,0.096c-2.181,0.768-4.166,1.908-5.9,3.384l-0.219,0.187l-4.396-2.617
	c-0.154-0.074-0.323-0.098-0.486-0.059c-0.198,0.057-0.362,0.15-0.508,0.294c-2.436,2.626-4.235,5.702-5.336,9.128
	c-0.041,0.16-0.028,0.338,0.042,0.528c0.063,0.169,0.174,0.288,0.346,0.372l4.415,2.627l-0.047,0.271
	c-0.386,2.25-0.386,4.531,0,6.78l0.047,0.272l-4.388,2.61c-0.199,0.101-0.311,0.22-0.373,0.392c-0.07,0.188-0.083,0.364-0.036,0.553
	c1.095,3.398,2.895,6.475,5.34,9.111c0.133,0.133,0.3,0.229,0.498,0.279c0.164,0.041,0.33,0.02,0.513-0.07L40.621,295.231z
	 M52.931,289.601c-2.275,0-4.25-0.82-5.865-2.439c-1.619-1.621-2.44-3.596-2.44-5.865c0-2.271,0.821-4.245,2.44-5.866
	c1.615-1.618,3.59-2.439,5.865-2.439s4.252,0.821,5.867,2.438v0.001c1.619,1.621,2.441,3.595,2.441,5.866
	c0,2.27-0.822,4.244-2.441,5.865C57.184,288.78,55.21,289.601,52.931,289.601 M52.931,273.792c-2.057,0-3.839,0.74-5.299,2.205
	c-1.482,1.486-2.204,3.219-2.204,5.299c0,2.078,0.722,3.813,2.204,5.301c1.46,1.461,3.242,2.203,5.299,2.203
	c2.059,0,3.84-0.742,5.301-2.203c1.481-1.488,2.204-3.223,2.204-5.301c0-2.08-0.723-3.813-2.204-5.299
	C56.771,274.532,54.987,273.792,52.931,273.792"/>
<g>
	<path opacity="0.2" fill="#1B1464" d="M946.471,371.967c-8.557,0-17.101-0.912-25.59-2.753c-1.728-0.438-3.084-1.368-4.094-2.768
		c-0.993-1.37-1.498-2.871-1.498-4.478v-20.947c-9.628-3.52-18.46-8.539-26.284-14.928l-18.114,10.675
		c-1.773,0.88-3.448,1.079-5.08,0.652c-1.561-0.394-2.927-1.169-4.062-2.299c-11.774-12.558-20.391-27.143-25.666-43.407
		c-0.431-1.695-0.326-3.281,0.25-4.83c0.63-1.668,1.788-2.923,3.441-3.735l18.04-10.635c-1.586-9.922-1.586-19.969-0.002-29.898
		l-18.163-10.703c-1.521-0.741-2.68-1.996-3.316-3.663c-0.576-1.559-0.676-3.14-0.282-4.714
		c5.308-16.38,13.924-30.971,25.647-43.486c1.188-1.179,2.556-1.945,4.112-2.346c1.625-0.433,3.295-0.227,4.948,0.586l18.246,10.749
		c7.822-6.391,16.649-11.404,26.284-14.929v-20.944c0-1.607,0.505-3.112,1.5-4.483c1.01-1.403,2.364-2.33,4.024-2.753
		c17.063-3.695,34.291-3.693,51.285-0.016c1.728,0.44,3.084,1.366,4.094,2.77c0.986,1.366,1.496,2.871,1.496,4.483v20.944
		c9.633,3.52,18.467,8.538,26.279,14.924l18.117-10.675c1.785-0.871,3.447-1.079,5.092-0.655c1.551,0.401,2.917,1.167,4.047,2.295
		c11.777,12.564,20.4,27.157,25.675,43.412c0.427,1.699,0.329,3.283-0.257,4.834c-0.625,1.667-1.785,2.922-3.44,3.737
		l-18.034,10.633c1.584,9.929,1.584,19.976,0,29.898l18.108,10.672c1.623,0.813,2.753,2.056,3.366,3.702
		c0.586,1.543,0.684,3.126,0.29,4.703c-5.308,16.392-13.931,30.978-25.652,43.483c-1.181,1.177-2.547,1.952-4.103,2.346
		c-1.645,0.434-3.32,0.228-4.965-0.588l-18.237-10.739c-7.826,6.393-16.655,11.408-26.286,14.928v20.947
		c0,1.606-0.51,3.114-1.496,4.478c-1.01,1.399-2.366,2.33-4.024,2.749C963.624,371.045,955.045,371.967,946.471,371.967
		 M889.383,321.58l1.012,0.857c8.056,6.782,17.267,12.018,27.379,15.551l1.239,0.436v23.545c0,0.829,0.262,1.593,0.801,2.329
		c0.498,0.69,1.133,1.132,1.929,1.334c16.396,3.543,33.094,3.545,49.56-0.019c0.734-0.184,1.369-0.625,1.864-1.311
		c0.537-0.736,0.797-1.505,0.797-2.334v-23.545l1.238-0.436c10.117-3.533,19.323-8.769,27.38-15.551l1.017-0.857l20.397,12.022
		c0.711,0.341,1.484,0.449,2.246,0.251c0.921-0.234,1.69-0.667,2.353-1.33c11.305-12.063,19.654-26.184,24.763-41.935
		c0.176-0.74,0.125-1.551-0.204-2.419c-0.287-0.776-0.797-1.329-1.604-1.721l-0.125-0.065l-20.35-11.994l0.216-1.248
		c1.794-10.334,1.794-20.817,0-31.151l-0.216-1.25l20.35-11.99c0.933-0.468,1.438-1.005,1.729-1.788
		c0.329-0.868,0.38-1.683,0.169-2.552c-5.073-15.618-13.423-29.738-24.77-41.851c-0.62-0.618-1.394-1.051-2.311-1.29
		c-0.76-0.189-1.528-0.09-2.378,0.329l-20.266,11.951l-1.017-0.857c-8.049-6.78-17.256-12.013-27.38-15.551l-1.238-0.436v-23.54
		c0-0.834-0.26-1.593-0.794-2.332c-0.505-0.697-1.133-1.127-1.934-1.336c-16.392-3.543-33.092-3.55-49.556,0.012
		c-0.733,0.197-1.368,0.627-1.861,1.317c-0.544,0.746-0.806,1.505-0.806,2.339v23.54l-1.239,0.436
		c-10.119,3.538-19.33,8.771-27.374,15.551l-1.017,0.857l-20.396-12.027c-0.716-0.343-1.491-0.449-2.248-0.252
		c-0.917,0.239-1.688,0.679-2.362,1.336c-11.305,12.068-19.646,26.191-24.751,41.932c-0.181,0.741-0.127,1.556,0.204,2.424
		c0.289,0.783,0.796,1.32,1.595,1.713l20.481,12.064l-0.215,1.25c-1.788,10.334-1.788,20.817,0,31.151l0.215,1.248l-20.349,11.994
		c-0.932,0.457-1.438,1.01-1.734,1.783c-0.324,0.871-0.378,1.682-0.162,2.55c5.07,15.618,13.411,29.74,24.765,41.854
		c0.623,0.611,1.394,1.049,2.313,1.287c0.764,0.192,1.532,0.088,2.378-0.319L889.383,321.58z M946.489,295.721
		c-10.564,0-19.725-3.772-27.215-11.212c-7.51-7.446-11.316-16.515-11.316-26.944c0-10.434,3.807-19.501,11.316-26.946
		c7.497-7.44,16.655-11.214,27.215-11.214c10.563,0,19.719,3.774,27.219,11.208v0.007c7.51,7.445,11.313,16.512,11.313,26.946
		c0,10.429-3.804,19.498-11.313,26.944C966.213,291.948,957.053,295.721,946.489,295.721 M946.489,223.091
		c-9.536,0-17.805,3.409-24.58,10.131c-6.88,6.826-10.232,14.789-10.232,24.343c0,9.554,3.353,17.51,10.232,24.345
		c6.775,6.723,15.042,10.124,24.58,10.124c9.54,0,17.809-3.401,24.586-10.124c6.88-6.835,10.226-14.792,10.226-24.345
		c0-9.554-3.346-17.517-10.226-24.346C964.298,226.5,956.029,223.091,946.489,223.091"/>
	<rect x="819.844" y="99.306" fill="none" width="141" height="281"/>
</g>
</svg>
