<?xml version="1.0" encoding="utf-8"?>
<!-- Generator: Adobe Illustrator 16.0.0, SVG Export Plug-In . SVG Version: 6.00 Build 0)  -->
<!DOCTYPE svg PUBLIC "-//W3C//DTD SVG 1.1//EN" "http://www.w3.org/Graphics/SVG/1.1/DTD/svg11.dtd">
<svg version="1.1" id="Capa_1" xmlns="http://www.w3.org/2000/svg" xmlns:xlink="http://www.w3.org/1999/xlink" x="0px" y="0px"
	 width="962.58px" height="558.298px" viewBox="0 0 962.58 558.298" enable-background="new 0 0 962.58 558.298"
	 xml:space="preserve">
<path fill="#1B1464" d="M-2,282.447c21.85-2.064,42.548-69,47.248-90.38c2.391-10.88,5.887-43.261,4.912-60.067
	c-2.291-39.5,27.226-84.373,57.608-96.906c9.208-3.801,17.253-9.741,27.262-11.938c16.981-3.732,24.31-12.64,23.947-22.708H0.466
	L-2,282.447z"/>
<path fill="#1B1464" d="M281.736,558.25c0,0-70.716-59.391-11.96-123.69c52.133-57.051,112.912-53.15,157.507-29.999
	c18.99,9.86,73.751,1.217,120.359-56.836c63.559-79.166,283.875-31.152,243.705,90.647c-19.439,58.942,59.163,61.084,19.111,120.004
	L281.736,558.25z"/>
<path fill="#1B1464" d="M962.58,282c-18.67-2.064-36.357-69-40.373-90.381c-2.044-10.879-5.03-43.26-4.197-60.066
	c1.958-39.5-23.264-84.373-49.226-96.906c-7.868-3.801-14.742-9.742-23.296-11.939C830.979,18.975,824.716,10.068,825.026,0H962.58
	V282z"/>
</svg>
